<svg xmlns="http://www.w3.org/2000/svg" xmlns:xlink="http://www.w3.org/1999/xlink" width="500" zoomAndPan="magnify" viewBox="0 0 375 374.999991" height="500" preserveAspectRatio="xMidYMid meet" version="1.0"><defs><filter x="0%" y="0%" width="100%" height="100%" id="133acb2b11"><feColorMatrix values="0 0 0 0 1 0 0 0 0 1 0 0 0 0 1 0 0 0 1 0" color-interpolation-filters="sRGB"/></filter><g/><mask id="25251e0e0c"><g filter="url(#133acb2b11)"><rect x="-37.5" width="450" fill="#000000" y="-37.499999" height="449.999989" fill-opacity="0.4392"/></g></mask><clipPath id="ba5c7db9f1"><path d="M 25 43 L 361 43 L 361 319 L 25 319 Z M 25 43 " clip-rule="nonzero"/></clipPath><clipPath id="7cbd4bc518"><path d="M 403.511719 188.730469 L 161.148438 431.089844 L -83.863281 186.078125 L 158.5 -56.285156 Z M 403.511719 188.730469 " clip-rule="nonzero"/></clipPath><clipPath id="04086dac02"><path d="M 403.511719 188.730469 L 161.148438 431.089844 L -83.863281 186.078125 L 158.5 -56.285156 Z M 403.511719 188.730469 " clip-rule="nonzero"/></clipPath><clipPath id="2793b56523"><path d="M 48 41 L 91 41 L 91 84 L 48 84 Z M 48 41 " clip-rule="nonzero"/></clipPath><clipPath id="9e67573c62"><path d="M 403.511719 188.730469 L 161.148438 431.089844 L -83.863281 186.078125 L 158.5 -56.285156 Z M 403.511719 188.730469 " clip-rule="nonzero"/></clipPath><clipPath id="ef7c825c92"><path d="M 403.511719 188.730469 L 161.148438 431.089844 L -83.863281 186.078125 L 158.5 -56.285156 Z M 403.511719 188.730469 " clip-rule="nonzero"/></clipPath><clipPath id="efe5987b7d"><rect x="0" width="375" y="0" height="375"/></clipPath><clipPath id="186f42ff3d"><path d="M 171.464844 92.492188 L 308.519531 92.492188 L 308.519531 253.742188 L 171.464844 253.742188 Z M 171.464844 92.492188 " clip-rule="nonzero"/></clipPath></defs><g mask="url(#25251e0e0c)"><g transform="matrix(1, 0, 0, 1, 0, 0)"><g clip-path="url(#efe5987b7d)"><g clip-path="url(#ba5c7db9f1)"><g clip-path="url(#7cbd4bc518)"><g clip-path="url(#04086dac02)"><path fill="#2ec4b6" d="M 181.414062 61.15625 C 184.707031 50.175781 191.707031 42.882812 205.539062 43.554688 C 231.53125 44.832031 220.8125 68.027344 211.816406 82.105469 C 204.359375 93.777344 202.488281 113.273438 209.972656 125.355469 C 216.84375 136.46875 228.570312 141.574219 241.980469 136.683594 C 246.667969 134.976562 251.992188 133.804688 256.054688 130.835938 C 260.082031 127.886719 263.136719 123.867188 266.730469 120.445312 C 272.839844 114.632812 275.710938 108.234375 279.96875 101.007812 C 284.328125 93.589844 294.808594 88.476562 303.273438 91.015625 C 310.464844 93.179688 314.890625 100.644531 315.785156 107.734375 C 316.882812 116.441406 314.328125 122.824219 308.230469 128.828125 C 295.632812 141.234375 248.574219 141.546875 255.839844 168.636719 C 261.484375 189.710938 315.71875 177.316406 331.671875 184.417969 C 345.75 190.675781 363.820312 208.210938 359.75 225.339844 C 348.574219 272.332031 282.007812 227.46875 258.078125 220.257812 C 182.199219 197.40625 238.527344 261.988281 232.742188 293.375 C 229.308594 312.015625 213.425781 324.273438 198.859375 315.644531 C 177.242188 302.847656 194.40625 265.203125 180.808594 255.628906 C 147.039062 231.855469 95.539062 312.773438 60.984375 314.589844 C 45.566406 315.402344 36.957031 310.910156 30.101562 296.140625 C 16.621094 267.101562 38.421875 257.050781 59.867188 243.949219 C 70.40625 237.507812 82.875 233.390625 91.390625 224.023438 C 95.140625 219.902344 98.480469 213.964844 96.664062 208.1875 C 94.21875 200.417969 85.816406 201.640625 79.242188 201.046875 C 70.945312 200.292969 62.5625 194.121094 61.238281 185.46875 C 59.332031 173.015625 67.136719 162.792969 79.53125 161.746094 C 95.035156 160.441406 119.140625 185.886719 132.785156 168.019531 C 143.445312 154.042969 119.785156 139.625 115.5 128.195312 C 109.1875 111.335938 123.988281 87.339844 143.304688 95.300781 C 153.003906 99.292969 161.75 112.859375 172.445312 106.800781 C 184.304688 100.082031 178.160156 81.085938 179.582031 70.082031 C 179.980469 66.917969 180.582031 63.917969 181.414062 61.15625 Z M 181.414062 61.15625 " fill-opacity="1" fill-rule="nonzero"/></g></g></g><g clip-path="url(#2793b56523)"><g clip-path="url(#9e67573c62)"><g clip-path="url(#ef7c825c92)"><path fill="#2ec4b6" d="M 76.054688 82.941406 C 64.90625 86.511719 52.976562 80.363281 49.40625 69.210938 C 45.832031 58.054688 51.96875 46.128906 63.117188 42.5625 C 74.273438 39 86.203125 45.144531 89.777344 56.300781 C 93.34375 67.449219 87.210938 79.378906 76.054688 82.941406 Z M 76.054688 82.941406 " fill-opacity="1" fill-rule="nonzero"/></g></g></g></g></g></g><g clip-path="url(#186f42ff3d)"><path fill="#ffbf69" d="M 235.898438 114.882812 L 219.796875 92.492188 L 213.039062 97.375 L 228.140625 118.375 L 230.222656 127.164062 C 221.652344 130 214.632812 136.429688 211.039062 144.703125 L 268.957031 144.703125 C 265.363281 136.429688 258.332031 130 249.773438 127.164062 L 251.855469 118.375 L 266.960938 97.375 L 260.199219 92.492188 L 244.113281 114.882812 L 241.558594 125.632812 C 240.519531 125.589844 239.492188 125.589844 238.4375 125.632812 Z M 244.183594 153.089844 L 244.183594 241.144531 L 271.582031 213.644531 L 271.582031 201.578125 L 281.535156 212.902344 L 268.128906 250.539062 L 277.042969 253.730469 L 292.316406 210.855469 L 271.566406 187.261719 L 271.566406 180.578125 L 277.8125 180.578125 L 296.453125 202.164062 L 308.53125 202.164062 L 308.53125 192.660156 L 300.730469 192.660156 L 282.089844 171.070312 L 271.566406 171.070312 L 271.566406 162.597656 L 282.519531 162.597656 L 302.613281 131.316406 L 294.65625 126.191406 L 277.386719 153.089844 Z M 235.828125 153.089844 L 202.625 153.089844 L 185.355469 126.207031 L 177.398438 131.332031 L 197.476562 162.609375 L 208.429688 162.609375 L 208.429688 171.085938 L 197.90625 171.085938 L 179.265625 192.671875 L 171.464844 192.671875 L 171.464844 202.179688 L 183.558594 202.179688 L 202.199219 180.578125 L 208.429688 180.578125 L 208.429688 187.261719 L 187.695312 210.855469 L 202.96875 253.742188 L 211.882812 250.550781 L 198.476562 212.914062 L 208.429688 201.59375 L 208.429688 213.660156 L 235.828125 241.144531 L 235.828125 153.089844 " fill-opacity="1" fill-rule="nonzero"/></g><g fill="#545454" fill-opacity="1"><g transform="translate(105.313336, 208.730748)"><g><path d="M 17.988281 -26.164062 C 17.988281 -29.914062 15.953125 -31.90625 12.203125 -31.90625 L 2.632812 -31.90625 C 2.234375 -31.90625 1.996094 -31.707031 1.996094 -31.269531 L 1.996094 -0.636719 C 1.996094 -0.238281 2.234375 0 2.632812 0 L 12.203125 0 C 15.953125 0 17.988281 -1.996094 17.988281 -5.742188 L 17.988281 -13.082031 C 17.988281 -14.558594 16.910156 -15.675781 15.476562 -15.914062 L 15.476562 -15.992188 C 16.910156 -16.234375 17.988281 -17.351562 17.988281 -18.824219 Z M 12.683594 -20.140625 C 12.683594 -19.144531 12.125 -18.585938 11.089844 -18.585938 L 7.457031 -18.585938 L 7.457031 -26.644531 L 11.089844 -26.644531 C 12.164062 -26.644531 12.683594 -26.085938 12.683594 -25.046875 Z M 12.683594 -6.859375 C 12.683594 -5.785156 12.125 -5.265625 11.089844 -5.265625 L 7.457031 -5.265625 L 7.457031 -13.320312 L 11.089844 -13.320312 C 12.164062 -13.320312 12.683594 -12.761719 12.683594 -11.726562 Z M 12.683594 -6.859375 "/></g></g></g><g fill="#545454" fill-opacity="1"><g transform="translate(126.093091, 208.730748)"><g><path d="M 13.480469 -31.90625 C 13.042969 -31.90625 12.683594 -31.546875 12.683594 -31.109375 L 12.683594 -6.859375 C 12.683594 -5.785156 12.125 -5.265625 11.089844 -5.265625 L 9.015625 -5.265625 C 7.976562 -5.265625 7.417969 -5.785156 7.417969 -6.859375 L 7.417969 -31.109375 C 7.417969 -31.546875 7.058594 -31.90625 6.621094 -31.90625 L 2.792969 -31.90625 C 2.351562 -31.90625 1.996094 -31.546875 1.996094 -31.109375 L 1.996094 -5.742188 C 1.996094 -1.996094 3.988281 0 7.738281 0 L 12.203125 0 C 15.953125 0 17.949219 -1.996094 17.949219 -5.742188 L 17.949219 -31.109375 C 17.949219 -31.546875 17.589844 -31.90625 17.152344 -31.90625 Z M 13.480469 -31.90625 "/></g></g></g><g fill="#545454" fill-opacity="1"><g transform="translate(146.832963, 208.730748)"><g><path d="M 1.996094 -5.742188 C 1.996094 -1.996094 3.988281 0 7.738281 0 L 13.003906 0 C 16.710938 0 18.746094 -1.996094 18.746094 -5.742188 L 18.746094 -16.832031 C 18.746094 -17.269531 18.507812 -17.46875 18.109375 -17.46875 L 11.40625 -17.46875 C 10.96875 -17.46875 10.769531 -17.269531 10.769531 -16.832031 L 10.769531 -12.84375 C 10.769531 -12.445312 10.96875 -12.203125 11.40625 -12.203125 L 13.480469 -12.203125 L 13.480469 -6.859375 C 13.480469 -5.785156 12.921875 -5.265625 11.886719 -5.265625 L 9.015625 -5.265625 C 7.976562 -5.265625 7.417969 -5.785156 7.417969 -6.859375 L 7.417969 -25.046875 C 7.417969 -26.085938 7.9375 -26.644531 9.015625 -26.644531 L 11.886719 -26.644531 C 12.921875 -26.644531 13.480469 -26.085938 13.480469 -25.046875 L 13.480469 -22.015625 C 13.480469 -21.617188 13.679688 -21.378906 14.121094 -21.378906 L 18.109375 -21.378906 C 18.507812 -21.378906 18.746094 -21.617188 18.746094 -22.015625 L 18.746094 -26.164062 C 18.746094 -29.914062 16.710938 -31.90625 13.003906 -31.90625 L 7.738281 -31.90625 C 3.988281 -31.90625 1.996094 -29.914062 1.996094 -26.164062 Z M 1.996094 -5.742188 "/></g></g></g><g fill="#545454" fill-opacity="1"><g transform="translate(168.363223, 208.730748)"><g/></g></g><g fill="#545454" fill-opacity="1"><g transform="translate(90.250047, 245.581824)"><g><path d="M 12.523438 -6.859375 C 12.523438 -5.824219 11.964844 -5.265625 10.929688 -5.265625 L 8.855469 -5.265625 C 7.816406 -5.265625 7.257812 -5.824219 7.257812 -6.859375 L 7.257812 -9.890625 C 7.257812 -10.289062 7.019531 -10.53125 6.621094 -10.53125 L 2.632812 -10.53125 C 2.195312 -10.53125 1.996094 -10.289062 1.996094 -9.890625 L 1.996094 -5.742188 C 1.996094 -1.996094 3.988281 0 7.738281 0 L 12.203125 0 C 15.914062 0 17.949219 -1.996094 17.949219 -5.742188 L 17.949219 -31.269531 C 17.949219 -31.667969 17.707031 -31.90625 17.308594 -31.90625 L 13.160156 -31.90625 C 12.722656 -31.90625 12.523438 -31.667969 12.523438 -31.269531 Z M 12.523438 -6.859375 "/></g></g></g><g fill="#545454" fill-opacity="1"><g transform="translate(110.98992, 245.581824)"><g><path d="M 13.480469 -31.90625 C 13.042969 -31.90625 12.683594 -31.546875 12.683594 -31.109375 L 12.683594 -6.859375 C 12.683594 -5.785156 12.125 -5.265625 11.089844 -5.265625 L 9.015625 -5.265625 C 7.976562 -5.265625 7.417969 -5.785156 7.417969 -6.859375 L 7.417969 -31.109375 C 7.417969 -31.546875 7.058594 -31.90625 6.621094 -31.90625 L 2.792969 -31.90625 C 2.351562 -31.90625 1.996094 -31.546875 1.996094 -31.109375 L 1.996094 -5.742188 C 1.996094 -1.996094 3.988281 0 7.738281 0 L 12.203125 0 C 15.953125 0 17.949219 -1.996094 17.949219 -5.742188 L 17.949219 -31.109375 C 17.949219 -31.546875 17.589844 -31.90625 17.152344 -31.90625 Z M 13.480469 -31.90625 "/></g></g></g><g fill="#545454" fill-opacity="1"><g transform="translate(131.729792, 245.581824)"><g><path d="M 2.632812 -31.90625 C 2.195312 -31.90625 1.996094 -31.667969 1.996094 -31.269531 L 1.996094 -0.636719 C 1.996094 -0.238281 2.195312 0 2.632812 0 L 6.78125 0 C 7.179688 0 7.417969 -0.238281 7.417969 -0.636719 L 7.417969 -31.269531 C 7.417969 -31.667969 7.179688 -31.90625 6.78125 -31.90625 Z M 2.632812 -31.90625 "/></g></g></g><g fill="#545454" fill-opacity="1"><g transform="translate(141.940214, 245.581824)"><g><path d="M 17.988281 -26.164062 C 17.988281 -29.914062 15.953125 -31.90625 12.246094 -31.90625 L 7.777344 -31.90625 C 4.027344 -31.90625 1.996094 -29.914062 1.996094 -26.164062 L 1.996094 -5.742188 C 1.996094 -1.996094 4.027344 0 7.777344 0 L 12.246094 0 C 15.953125 0 17.988281 -1.996094 17.988281 -5.742188 L 17.988281 -10.050781 C 17.988281 -10.449219 17.75 -10.6875 17.351562 -10.6875 L 13.363281 -10.6875 C 12.921875 -10.6875 12.722656 -10.449219 12.722656 -10.050781 L 12.722656 -6.859375 C 12.722656 -5.785156 12.164062 -5.265625 11.128906 -5.265625 L 9.054688 -5.265625 C 8.015625 -5.265625 7.457031 -5.785156 7.457031 -6.859375 L 7.457031 -25.046875 C 7.457031 -26.085938 7.976562 -26.644531 9.054688 -26.644531 L 11.128906 -26.644531 C 12.164062 -26.644531 12.722656 -26.085938 12.722656 -25.046875 L 12.722656 -21.855469 C 12.722656 -21.457031 12.921875 -21.21875 13.363281 -21.21875 L 17.351562 -21.21875 C 17.75 -21.21875 17.988281 -21.457031 17.988281 -21.855469 Z M 17.988281 -26.164062 "/></g></g></g><g fill="#545454" fill-opacity="1"><g transform="translate(162.719969, 245.581824)"><g><path d="M 17.910156 -31.269531 C 17.910156 -31.667969 17.75 -31.90625 17.269531 -31.90625 L 2.59375 -31.90625 C 2.234375 -31.90625 1.996094 -31.667969 1.996094 -31.269531 L 1.996094 -0.636719 C 1.996094 -0.238281 2.234375 0 2.59375 0 L 17.269531 0 C 17.75 0 17.910156 -0.238281 17.910156 -0.636719 L 17.910156 -4.625 C 17.910156 -5.066406 17.75 -5.265625 17.269531 -5.265625 L 7.300781 -5.265625 L 7.300781 -13.320312 L 14.917969 -13.320312 C 15.316406 -13.320312 15.554688 -13.5625 15.554688 -14 L 15.554688 -17.949219 C 15.554688 -18.386719 15.316406 -18.625 14.917969 -18.625 L 7.300781 -18.625 L 7.300781 -26.601562 L 17.269531 -26.601562 C 17.75 -26.601562 17.910156 -26.882812 17.910156 -27.28125 Z M 17.910156 -31.269531 "/></g></g></g><g fill="#545454" fill-opacity="1"><g transform="translate(183.41623, 245.581824)"><g/></g></g></svg>